<mxfile host="Electron" agent="Mozilla/5.0 (Windows NT 10.0; Win64; x64) AppleWebKit/537.36 (KHTML, like Gecko) draw.io/28.1.2 Chrome/138.0.7204.243 Electron/37.4.0 Safari/537.36" version="28.1.2">
  <diagram name="Page-1" id="iXbAT8YT9LegDmNgqHxJ">
    <mxGraphModel dx="1465" dy="843" grid="1" gridSize="10" guides="1" tooltips="1" connect="1" arrows="1" fold="1" page="1" pageScale="1" pageWidth="1169" pageHeight="827" math="0" shadow="0">
      <root>
        <mxCell id="0" />
        <mxCell id="1" parent="0" />
        <mxCell id="uNy5iEmAyJ1X-l6uXSRX-74" value="" style="rounded=1;whiteSpace=wrap;html=1;fillColor=none;arcSize=3;dashed=1;strokeColor=#FFFF33;movable=1;resizable=1;rotatable=1;deletable=1;editable=1;locked=0;connectable=1;" parent="1" vertex="1">
          <mxGeometry x="730" y="190" width="200" height="510" as="geometry" />
        </mxCell>
        <mxCell id="uNy5iEmAyJ1X-l6uXSRX-73" value="" style="rounded=1;whiteSpace=wrap;html=1;fillColor=none;arcSize=3;dashed=1;strokeColor=#0000FF;" parent="1" vertex="1">
          <mxGeometry x="240" y="190" width="430" height="510" as="geometry" />
        </mxCell>
        <mxCell id="PEyNXAKP3aaGUIQvB0DI-1" value="" style="rounded=0;whiteSpace=wrap;html=1;fillColor=none;dashed=1;dashPattern=1 4;strokeWidth=1;movable=0;resizable=0;rotatable=0;deletable=0;editable=0;locked=1;connectable=0;" parent="1" vertex="1">
          <mxGeometry x="20" y="20" width="1130" height="790" as="geometry" />
        </mxCell>
        <mxCell id="uNy5iEmAyJ1X-l6uXSRX-23" value="" style="edgeStyle=orthogonalEdgeStyle;rounded=0;orthogonalLoop=1;jettySize=auto;html=1;entryX=0;entryY=0.5;entryDx=0;entryDy=0;" parent="1" edge="1">
          <mxGeometry relative="1" as="geometry">
            <Array as="points">
              <mxPoint x="240" y="560" />
              <mxPoint x="240" y="500" />
            </Array>
          </mxGeometry>
        </mxCell>
        <mxCell id="uNy5iEmAyJ1X-l6uXSRX-42" value="" style="group" parent="1" vertex="1" connectable="0">
          <mxGeometry x="500" y="290" width="140" height="130" as="geometry" />
        </mxCell>
        <mxCell id="uNy5iEmAyJ1X-l6uXSRX-33" value="&lt;font style=&quot;font-size: 16px;&quot;&gt;crm_cust_info&lt;/font&gt;" style="swimlane;fontStyle=0;childLayout=stackLayout;horizontal=1;startSize=30;horizontalStack=0;resizeParent=1;resizeParentMax=0;resizeLast=0;collapsible=0;marginBottom=0;whiteSpace=wrap;html=1;rounded=1;arcSize=10;fillColor=#009999;strokeColor=#0000FF;expand=1;" parent="uNy5iEmAyJ1X-l6uXSRX-42" vertex="1">
          <mxGeometry y="40" width="140" height="110" as="geometry">
            <mxRectangle x="220" y="230" width="60" height="30" as="alternateBounds" />
          </mxGeometry>
        </mxCell>
        <mxCell id="uNy5iEmAyJ1X-l6uXSRX-34" value="&lt;div&gt;&lt;font&gt;cst_id&lt;/font&gt;&lt;/div&gt;" style="text;strokeColor=none;fillColor=none;align=left;verticalAlign=middle;spacingLeft=4;spacingRight=4;overflow=hidden;points=[[0,0.5],[1,0.5]];portConstraint=eastwest;rotatable=0;whiteSpace=wrap;html=1;fontSize=14;" parent="uNy5iEmAyJ1X-l6uXSRX-33" vertex="1">
          <mxGeometry y="30" width="140" height="30" as="geometry" />
        </mxCell>
        <mxCell id="uNy5iEmAyJ1X-l6uXSRX-40" value="cst_key" style="text;strokeColor=none;fillColor=none;align=left;verticalAlign=middle;spacingLeft=4;spacingRight=4;overflow=hidden;points=[[0,0.5],[1,0.5]];portConstraint=eastwest;rotatable=0;whiteSpace=wrap;html=1;rounded=0;fontSize=14;" parent="uNy5iEmAyJ1X-l6uXSRX-33" vertex="1">
          <mxGeometry y="60" width="140" height="30" as="geometry" />
        </mxCell>
        <mxCell id="C8BFqIre8_O9ylin3uhh-4" value="CUSTOMER" style="rounded=0;whiteSpace=wrap;html=1;fillColor=#4D9900;fontStyle=1" parent="uNy5iEmAyJ1X-l6uXSRX-33" vertex="1">
          <mxGeometry y="90" width="140" height="20" as="geometry" />
        </mxCell>
        <mxCell id="uNy5iEmAyJ1X-l6uXSRX-41" value="Customers" style="text;html=1;align=center;verticalAlign=middle;whiteSpace=wrap;rounded=0;fontSize=12;" parent="uNy5iEmAyJ1X-l6uXSRX-42" vertex="1">
          <mxGeometry width="140" height="40" as="geometry" />
        </mxCell>
        <mxCell id="uNy5iEmAyJ1X-l6uXSRX-43" value="" style="group" parent="1" vertex="1" connectable="0">
          <mxGeometry x="500" y="530" width="140" height="130" as="geometry" />
        </mxCell>
        <mxCell id="uNy5iEmAyJ1X-l6uXSRX-44" value="&lt;font style=&quot;font-size: 16px;&quot;&gt;crm_prd_info&lt;/font&gt;" style="swimlane;fontStyle=0;childLayout=stackLayout;horizontal=1;startSize=30;horizontalStack=0;resizeParent=1;resizeParentMax=0;resizeLast=0;collapsible=0;marginBottom=0;whiteSpace=wrap;html=1;rounded=1;arcSize=10;fillColor=#009999;strokeColor=#0000FF;expand=1;" parent="uNy5iEmAyJ1X-l6uXSRX-43" vertex="1">
          <mxGeometry y="40" width="140" height="80" as="geometry">
            <mxRectangle x="220" y="230" width="60" height="30" as="alternateBounds" />
          </mxGeometry>
        </mxCell>
        <mxCell id="uNy5iEmAyJ1X-l6uXSRX-72" style="edgeStyle=orthogonalEdgeStyle;rounded=0;orthogonalLoop=1;jettySize=auto;html=1;shape=link;" parent="uNy5iEmAyJ1X-l6uXSRX-44" source="uNy5iEmAyJ1X-l6uXSRX-45" edge="1">
          <mxGeometry relative="1" as="geometry">
            <mxPoint x="260" y="45" as="targetPoint" />
          </mxGeometry>
        </mxCell>
        <mxCell id="uNy5iEmAyJ1X-l6uXSRX-45" value="&lt;div&gt;&lt;font&gt;prd_key&lt;/font&gt;&lt;/div&gt;" style="text;strokeColor=none;fillColor=none;align=left;verticalAlign=middle;spacingLeft=4;spacingRight=4;overflow=hidden;points=[[0,0.5],[1,0.5]];portConstraint=eastwest;rotatable=0;whiteSpace=wrap;html=1;fontSize=14;" parent="uNy5iEmAyJ1X-l6uXSRX-44" vertex="1">
          <mxGeometry y="30" width="140" height="30" as="geometry" />
        </mxCell>
        <mxCell id="C8BFqIre8_O9ylin3uhh-3" value="PRODUCT" style="rounded=0;whiteSpace=wrap;html=1;fillColor=#FF6666;fontStyle=1" parent="uNy5iEmAyJ1X-l6uXSRX-44" vertex="1">
          <mxGeometry y="60" width="140" height="20" as="geometry" />
        </mxCell>
        <mxCell id="uNy5iEmAyJ1X-l6uXSRX-47" value="Products History" style="text;html=1;align=center;verticalAlign=middle;whiteSpace=wrap;rounded=0;fontSize=12;" parent="uNy5iEmAyJ1X-l6uXSRX-43" vertex="1">
          <mxGeometry width="140" height="40" as="geometry" />
        </mxCell>
        <mxCell id="uNy5iEmAyJ1X-l6uXSRX-48" value="" style="group" parent="1" vertex="1" connectable="0">
          <mxGeometry x="270" y="378" width="140" height="130" as="geometry" />
        </mxCell>
        <mxCell id="uNy5iEmAyJ1X-l6uXSRX-49" value="&lt;font style=&quot;font-size: 16px;&quot;&gt;crm_sales_details&lt;/font&gt;" style="swimlane;fontStyle=0;childLayout=stackLayout;horizontal=1;startSize=30;horizontalStack=0;resizeParent=1;resizeParentMax=0;resizeLast=0;collapsible=0;marginBottom=0;whiteSpace=wrap;html=1;rounded=1;arcSize=10;fillColor=#009999;strokeColor=#0000FF;expand=1;" parent="uNy5iEmAyJ1X-l6uXSRX-48" vertex="1">
          <mxGeometry y="40" width="140" height="110" as="geometry">
            <mxRectangle x="220" y="230" width="60" height="30" as="alternateBounds" />
          </mxGeometry>
        </mxCell>
        <mxCell id="uNy5iEmAyJ1X-l6uXSRX-53" value="cst_id" style="text;strokeColor=none;fillColor=none;align=left;verticalAlign=middle;spacingLeft=4;spacingRight=4;overflow=hidden;points=[[0,0.5],[1,0.5]];portConstraint=eastwest;rotatable=0;whiteSpace=wrap;html=1;fontSize=14;" parent="uNy5iEmAyJ1X-l6uXSRX-49" vertex="1">
          <mxGeometry y="30" width="140" height="30" as="geometry" />
        </mxCell>
        <mxCell id="uNy5iEmAyJ1X-l6uXSRX-50" value="&lt;div&gt;&lt;font&gt;prd_key&lt;/font&gt;&lt;/div&gt;" style="text;strokeColor=none;fillColor=none;align=left;verticalAlign=middle;spacingLeft=4;spacingRight=4;overflow=hidden;points=[[0,0.5],[1,0.5]];portConstraint=eastwest;rotatable=0;whiteSpace=wrap;html=1;fontSize=14;" parent="uNy5iEmAyJ1X-l6uXSRX-49" vertex="1">
          <mxGeometry y="60" width="140" height="30" as="geometry" />
        </mxCell>
        <mxCell id="C8BFqIre8_O9ylin3uhh-6" value="SALES" style="rounded=0;whiteSpace=wrap;html=1;fillColor=#9933FF;fontStyle=1" parent="uNy5iEmAyJ1X-l6uXSRX-49" vertex="1">
          <mxGeometry y="90" width="140" height="20" as="geometry" />
        </mxCell>
        <mxCell id="uNy5iEmAyJ1X-l6uXSRX-51" value="Sales and Orders" style="text;html=1;align=center;verticalAlign=middle;whiteSpace=wrap;rounded=0;fontSize=12;" parent="uNy5iEmAyJ1X-l6uXSRX-48" vertex="1">
          <mxGeometry width="140" height="40" as="geometry" />
        </mxCell>
        <mxCell id="uNy5iEmAyJ1X-l6uXSRX-54" style="edgeStyle=orthogonalEdgeStyle;rounded=0;orthogonalLoop=1;jettySize=auto;html=1;exitX=1;exitY=0.5;exitDx=0;exitDy=0;entryX=0;entryY=0.5;entryDx=0;entryDy=0;shape=link;" parent="1" source="uNy5iEmAyJ1X-l6uXSRX-53" target="uNy5iEmAyJ1X-l6uXSRX-34" edge="1">
          <mxGeometry relative="1" as="geometry" />
        </mxCell>
        <mxCell id="uNy5iEmAyJ1X-l6uXSRX-55" style="edgeStyle=orthogonalEdgeStyle;rounded=0;orthogonalLoop=1;jettySize=auto;html=1;exitX=1;exitY=0.5;exitDx=0;exitDy=0;entryX=0;entryY=0.5;entryDx=0;entryDy=0;shape=link;" parent="1" source="uNy5iEmAyJ1X-l6uXSRX-50" target="uNy5iEmAyJ1X-l6uXSRX-45" edge="1">
          <mxGeometry relative="1" as="geometry" />
        </mxCell>
        <mxCell id="uNy5iEmAyJ1X-l6uXSRX-56" value="" style="group" parent="1" vertex="1" connectable="0">
          <mxGeometry x="760" y="250" width="140" height="130" as="geometry" />
        </mxCell>
        <mxCell id="uNy5iEmAyJ1X-l6uXSRX-57" value="&lt;font style=&quot;font-size: 16px;&quot;&gt;erp_cust_az12&lt;/font&gt;" style="swimlane;fontStyle=0;childLayout=stackLayout;horizontal=1;startSize=30;horizontalStack=0;resizeParent=1;resizeParentMax=0;resizeLast=0;collapsible=0;marginBottom=0;whiteSpace=wrap;html=1;rounded=1;arcSize=10;fillColor=#999900;strokeColor=#FFFF33;expand=1;" parent="uNy5iEmAyJ1X-l6uXSRX-56" vertex="1">
          <mxGeometry y="40.00000000000001" width="140" height="80" as="geometry">
            <mxRectangle x="220" y="230" width="60" height="30" as="alternateBounds" />
          </mxGeometry>
        </mxCell>
        <mxCell id="uNy5iEmAyJ1X-l6uXSRX-58" value="cid" style="text;strokeColor=none;fillColor=none;align=left;verticalAlign=middle;spacingLeft=4;spacingRight=4;overflow=hidden;points=[[0,0.5],[1,0.5]];portConstraint=eastwest;rotatable=0;whiteSpace=wrap;html=1;fontSize=14;" parent="uNy5iEmAyJ1X-l6uXSRX-57" vertex="1">
          <mxGeometry y="30" width="140" height="30" as="geometry" />
        </mxCell>
        <mxCell id="C8BFqIre8_O9ylin3uhh-5" value="CUSTOMER" style="rounded=0;whiteSpace=wrap;html=1;fillColor=#4D9900;fontStyle=1" parent="uNy5iEmAyJ1X-l6uXSRX-57" vertex="1">
          <mxGeometry y="60" width="140" height="20" as="geometry" />
        </mxCell>
        <mxCell id="uNy5iEmAyJ1X-l6uXSRX-60" value="Customers&#39; Birth Date" style="text;html=1;align=center;verticalAlign=middle;whiteSpace=wrap;rounded=0;fontSize=12;" parent="uNy5iEmAyJ1X-l6uXSRX-56" vertex="1">
          <mxGeometry width="140" height="40.00000000000001" as="geometry" />
        </mxCell>
        <mxCell id="uNy5iEmAyJ1X-l6uXSRX-61" value="" style="group" parent="1" vertex="1" connectable="0">
          <mxGeometry x="760" y="390" width="140" height="130" as="geometry" />
        </mxCell>
        <mxCell id="uNy5iEmAyJ1X-l6uXSRX-62" value="&lt;font style=&quot;font-size: 16px;&quot;&gt;erp_loc_a101&lt;/font&gt;" style="swimlane;fontStyle=0;childLayout=stackLayout;horizontal=1;startSize=30;horizontalStack=0;resizeParent=1;resizeParentMax=0;resizeLast=0;collapsible=0;marginBottom=0;whiteSpace=wrap;html=1;rounded=1;arcSize=10;fillColor=#999900;strokeColor=#FFFF33;expand=1;" parent="uNy5iEmAyJ1X-l6uXSRX-61" vertex="1">
          <mxGeometry y="40" width="140" height="80" as="geometry">
            <mxRectangle x="220" y="230" width="60" height="30" as="alternateBounds" />
          </mxGeometry>
        </mxCell>
        <mxCell id="uNy5iEmAyJ1X-l6uXSRX-63" value="cid" style="text;strokeColor=none;fillColor=none;align=left;verticalAlign=middle;spacingLeft=4;spacingRight=4;overflow=hidden;points=[[0,0.5],[1,0.5]];portConstraint=eastwest;rotatable=0;whiteSpace=wrap;html=1;fontSize=14;" parent="uNy5iEmAyJ1X-l6uXSRX-62" vertex="1">
          <mxGeometry y="30" width="140" height="30" as="geometry" />
        </mxCell>
        <mxCell id="C8BFqIre8_O9ylin3uhh-2" value="CUSTOMER" style="rounded=0;whiteSpace=wrap;html=1;fillColor=#4D9900;fontStyle=1" parent="uNy5iEmAyJ1X-l6uXSRX-62" vertex="1">
          <mxGeometry y="60" width="140" height="20" as="geometry" />
        </mxCell>
        <mxCell id="uNy5iEmAyJ1X-l6uXSRX-64" value="Customers&#39; Location" style="text;html=1;align=center;verticalAlign=middle;whiteSpace=wrap;rounded=0;fontSize=12;" parent="uNy5iEmAyJ1X-l6uXSRX-61" vertex="1">
          <mxGeometry width="140" height="40" as="geometry" />
        </mxCell>
        <mxCell id="uNy5iEmAyJ1X-l6uXSRX-65" value="" style="group" parent="1" vertex="1" connectable="0">
          <mxGeometry x="760" y="530" width="140" height="130" as="geometry" />
        </mxCell>
        <mxCell id="uNy5iEmAyJ1X-l6uXSRX-66" value="&lt;font style=&quot;font-size: 16px;&quot;&gt;erp_px_cat_g1v2&lt;/font&gt;" style="swimlane;fontStyle=0;childLayout=stackLayout;horizontal=1;startSize=30;horizontalStack=0;resizeParent=1;resizeParentMax=0;resizeLast=0;collapsible=0;marginBottom=0;whiteSpace=wrap;html=1;rounded=1;arcSize=10;fillColor=#999900;strokeColor=#FFFF33;expand=1;" parent="uNy5iEmAyJ1X-l6uXSRX-65" vertex="1">
          <mxGeometry y="40" width="140" height="80" as="geometry">
            <mxRectangle x="220" y="230" width="60" height="30" as="alternateBounds" />
          </mxGeometry>
        </mxCell>
        <mxCell id="uNy5iEmAyJ1X-l6uXSRX-67" value="id" style="text;strokeColor=none;fillColor=none;align=left;verticalAlign=middle;spacingLeft=4;spacingRight=4;overflow=hidden;points=[[0,0.5],[1,0.5]];portConstraint=eastwest;rotatable=0;whiteSpace=wrap;html=1;fontSize=14;" parent="uNy5iEmAyJ1X-l6uXSRX-66" vertex="1">
          <mxGeometry y="30" width="140" height="30" as="geometry" />
        </mxCell>
        <mxCell id="C8BFqIre8_O9ylin3uhh-1" value="PRODUCT" style="rounded=0;whiteSpace=wrap;html=1;fillColor=#FF6666;fontStyle=1" parent="uNy5iEmAyJ1X-l6uXSRX-66" vertex="1">
          <mxGeometry y="60" width="140" height="20" as="geometry" />
        </mxCell>
        <mxCell id="uNy5iEmAyJ1X-l6uXSRX-68" value="Product Categories" style="text;html=1;align=center;verticalAlign=middle;whiteSpace=wrap;rounded=0;fontSize=12;" parent="uNy5iEmAyJ1X-l6uXSRX-65" vertex="1">
          <mxGeometry width="140" height="40" as="geometry" />
        </mxCell>
        <mxCell id="uNy5iEmAyJ1X-l6uXSRX-70" style="edgeStyle=orthogonalEdgeStyle;rounded=0;orthogonalLoop=1;jettySize=auto;html=1;entryX=0;entryY=0.5;entryDx=0;entryDy=0;shape=link;" parent="1" source="uNy5iEmAyJ1X-l6uXSRX-34" target="uNy5iEmAyJ1X-l6uXSRX-58" edge="1">
          <mxGeometry relative="1" as="geometry" />
        </mxCell>
        <mxCell id="uNy5iEmAyJ1X-l6uXSRX-71" style="edgeStyle=orthogonalEdgeStyle;rounded=0;orthogonalLoop=1;jettySize=auto;html=1;entryX=0;entryY=0.5;entryDx=0;entryDy=0;exitX=1;exitY=0.5;exitDx=0;exitDy=0;shape=link;" parent="1" source="uNy5iEmAyJ1X-l6uXSRX-34" target="uNy5iEmAyJ1X-l6uXSRX-63" edge="1">
          <mxGeometry relative="1" as="geometry">
            <mxPoint x="640" y="380" as="sourcePoint" />
            <mxPoint x="800" y="370" as="targetPoint" />
            <Array as="points">
              <mxPoint x="700" y="375" />
              <mxPoint x="700" y="475" />
            </Array>
          </mxGeometry>
        </mxCell>
        <mxCell id="uNy5iEmAyJ1X-l6uXSRX-75" value="CRM" style="rounded=1;whiteSpace=wrap;html=1;fillColor=#009999;strokeColor=#0000FF;fontSize=18;fontStyle=1" parent="1" vertex="1">
          <mxGeometry x="395" y="170" width="120" height="40" as="geometry" />
        </mxCell>
        <mxCell id="uNy5iEmAyJ1X-l6uXSRX-76" value="Customer Relationship Management" style="text;html=1;align=center;verticalAlign=middle;whiteSpace=wrap;rounded=0;fontSize=14;" parent="1" vertex="1">
          <mxGeometry x="320" y="140" width="270" height="30" as="geometry" />
        </mxCell>
        <mxCell id="uNy5iEmAyJ1X-l6uXSRX-77" value="ERP" style="rounded=1;whiteSpace=wrap;html=1;fillColor=#999900;strokeColor=#FFFF33;fontSize=18;fontStyle=1" parent="1" vertex="1">
          <mxGeometry x="770" y="170" width="120" height="40" as="geometry" />
        </mxCell>
        <mxCell id="uNy5iEmAyJ1X-l6uXSRX-78" value="Enterprise Resource Planning" style="text;html=1;align=center;verticalAlign=middle;whiteSpace=wrap;rounded=0;fontSize=14;" parent="1" vertex="1">
          <mxGeometry x="730" y="130" width="200" height="40" as="geometry" />
        </mxCell>
        <mxCell id="uNy5iEmAyJ1X-l6uXSRX-79" value="Data Integration - Tables relations" style="text;html=1;align=center;verticalAlign=middle;whiteSpace=wrap;rounded=0;fontSize=20;fontStyle=1" parent="1" vertex="1">
          <mxGeometry x="400" y="40" width="360" height="40" as="geometry" />
        </mxCell>
      </root>
    </mxGraphModel>
  </diagram>
</mxfile>
